<svg width="95" height="95" viewBox="0 0 95 95" fill="none" xmlns="http://www.w3.org/2000/svg">
<path d="M89.7759 36.0991L75.0926 24.9523V11.6541C75.0926 9.56956 73.4535 7.8837 71.4369 7.8837H65.495C63.4755 7.8837 61.8393 9.57261 61.8393 11.6541V14.8843L50.6437 6.3865C48.2144 4.53783 44.2388 4.53783 41.8096 6.3865L2.67886 36.0991C0.249588 37.9448 -0.273708 41.5097 1.51434 44.0187L2.59484 45.5342C4.37994 48.0447 7.83369 48.5879 10.26 46.7423L41.8096 22.775C44.2388 20.9294 48.2144 20.9294 50.6437 22.775L82.1918 46.7423C84.6196 48.5879 88.0704 48.0417 89.8555 45.5342L90.9404 44.0187C92.7255 41.5097 92.2007 37.9448 89.7759 36.0991Z" fill="#7BDFF2"/>
<mask id="mask0_29_51" style="mask-type:luminance" maskUnits="userSpaceOnUse" x="9" y="26" width="74" height="69">
<path d="M9.71017 26.3537H82.5411V94.0957H9.71017V26.3537Z" fill="white"/>
</mask>
<g mask="url(#mask0_29_51)">
<path d="M78.0688 48.8268L50.6349 27.898C48.21 26.0478 44.2448 26.0478 41.8184 27.898L14.3845 48.8268C11.9596 50.6785 9.97406 53.3868 9.97406 54.8536V85.1962C9.97406 90.1214 14.0646 94.1169 19.1148 94.1169H35.8676V67.277C35.8676 65.2046 37.5127 63.5096 39.5204 63.5096H52.927C54.9347 63.5096 56.5798 65.2046 56.5798 67.277V94.1169H73.337C78.3828 94.1169 82.4719 90.1214 82.4719 85.1962V54.8536C82.4748 53.3868 80.4951 50.6785 78.0688 48.8268Z" fill="#7BDFF2"/>
</g>
<path d="M92.3237 31.5513L77.6405 20.4045V7.10624C77.6405 5.02173 76.0013 3.33586 73.9848 3.33586H68.0428C66.0233 3.33586 64.3871 5.02477 64.3871 7.10624V10.3365L53.1915 1.83867C50.7622 -0.010004 46.7867 -0.010004 44.3574 1.83867L5.22668 31.5513C2.79741 33.3969 2.27411 36.9619 4.06216 39.4709L5.14266 40.9864C6.92776 43.4969 10.3815 44.0401 12.8078 42.1945L44.3574 18.2272C46.7867 16.3815 50.7622 16.3815 53.1915 18.2272L84.7396 42.1945C87.1674 44.0401 90.6182 43.4939 92.4033 40.9864L93.4882 39.4709C95.2733 36.9619 94.7485 33.3969 92.3237 31.5513Z" fill="#EFF7F6"/>
<mask id="mask1_29_51" style="mask-type:luminance" maskUnits="userSpaceOnUse" x="12" y="21" width="74" height="69">
<path d="M12.258 21.8058H85.0889V89.5478H12.258V21.8058Z" fill="white"/>
</mask>
<g mask="url(#mask1_29_51)">
<path d="M80.6166 44.279L53.1827 23.3502C50.7578 21.5 46.7926 21.5 44.3663 23.3502L16.9323 44.279C14.5075 46.1307 12.5219 48.839 12.5219 50.3058V80.6483C12.5219 85.5736 16.6124 89.5691 21.6626 89.5691H38.4154V62.7292C38.4154 60.6568 40.0605 58.9618 42.0682 58.9618H55.4749C57.4825 58.9618 59.1276 60.6568 59.1276 62.7292V89.5691H75.8849C80.9306 89.5691 85.0197 85.5736 85.0197 80.6483V50.3058C85.0226 48.839 83.043 46.1307 80.6166 44.279Z" fill="#EFF7F6"/>
</g>
</svg>
