<svg width="110" height="93" viewBox="0 0 110 93" fill="none" xmlns="http://www.w3.org/2000/svg">
<path fill-rule="evenodd" clip-rule="evenodd" d="M48.8075 57.8027C48.8075 66.7607 56.0967 74.0706 65.0779 74.0706C74.0364 74.0706 81.3458 66.7835 81.3458 57.8027C81.3458 48.8446 74.0592 41.5322 65.0779 41.5322C56.0967 41.5297 48.8075 48.8446 48.8075 57.8027ZM61.8861 64.8146C61.5623 64.8146 61.2361 64.691 60.9882 64.4411L55.8463 59.2995C55.348 58.7997 55.348 58.0021 55.8463 57.5275C56.3446 57.0278 57.1413 57.0278 57.6167 57.5275L61.8608 61.768L72.4658 51.139C72.964 50.6418 73.7632 50.6418 74.2387 51.139C74.737 51.6363 74.737 52.4364 74.2387 52.9109L62.7333 64.4158C62.5361 64.6884 62.2326 64.8146 61.8861 64.8146Z" fill="#7BDFF2"/>
<path fill-rule="evenodd" clip-rule="evenodd" d="M72.561 75.7831C70.2723 76.7111 67.7565 77.2232 65.0918 77.2232C62.4271 77.2232 59.9138 76.7111 57.6201 75.7831C57.4712 75.9217 57.3702 76.1073 57.3702 76.3164V81.8651C57.3702 82.2856 57.7437 82.6333 58.1929 82.6333H71.9605C72.4096 82.6333 72.7831 82.2856 72.7831 81.8651V76.3164C72.7856 76.1308 72.7099 75.9452 72.561 75.7831Z" fill="#7BDFF2"/>
<path fill-rule="evenodd" clip-rule="evenodd" d="M96.7949 74.9269H83.0247C82.5756 74.9269 82.2021 75.3052 82.2021 75.7601V81.8001C82.2021 82.255 82.5756 82.6333 83.0247 82.6333H96.7949C97.2416 82.6333 97.615 82.255 97.615 81.8001V75.7601C97.615 75.3307 97.2441 74.9269 96.7949 74.9269Z" fill="#7BDFF2"/>
<path fill-rule="evenodd" clip-rule="evenodd" d="M83.9147 54.3763C84.1688 55.6119 84.3202 56.8959 84.3202 58.2308C84.3202 59.5378 84.1944 60.8243 83.9147 62.0828H96.7809C97.2352 62.0828 97.615 61.7032 97.615 61.2497V55.2349C97.615 54.7814 97.2352 54.4044 96.7809 54.4044H83.9147V54.3763Z" fill="#7BDFF2"/>
<path fill-rule="evenodd" clip-rule="evenodd" d="M82.2021 33.8051V39.8404C82.2021 40.2978 82.5756 40.676 83.0247 40.676H96.7949C97.2441 40.676 97.615 40.2978 97.615 39.8404V33.8051C97.615 33.3503 97.2441 32.9695 96.7949 32.9695H83.0247C82.5756 32.9695 82.2021 33.3503 82.2021 33.8051Z" fill="#7BDFF2"/>
<path fill-rule="evenodd" clip-rule="evenodd" d="M57.3702 33.8334V40.0736C57.3702 40.3114 57.4685 40.5201 57.6196 40.676C59.9063 39.6298 62.4147 39.0565 65.0767 39.0565C67.7337 39.0565 70.2445 39.6298 72.5338 40.676C72.6799 40.5201 72.7831 40.3114 72.7831 40.0736V33.8334C72.7831 33.3632 72.4104 32.9695 71.9621 32.9695H58.2215C57.7682 32.9695 57.3702 33.3632 57.3702 33.8334Z" fill="#7BDFF2"/>
<path fill-rule="evenodd" clip-rule="evenodd" d="M34.2172 32.9695C33.7681 32.9695 33.3946 33.3503 33.3946 33.8051V39.8404C33.3946 40.2978 33.7681 40.676 34.2172 40.676H47.9849C48.4341 40.676 48.8075 40.2978 48.8075 39.8404V33.8051C48.8075 33.3503 48.4341 32.9695 47.9849 32.9695H34.2172Z" fill="#7BDFF2"/>
<path fill-rule="evenodd" clip-rule="evenodd" d="M23.153 32.9695H9.38534C8.93618 32.9695 8.56271 33.3503 8.56271 33.8051V39.8404C8.56271 40.2978 8.93618 40.676 9.38534 40.676H23.153C23.6021 40.676 23.9756 40.2978 23.9756 39.8404V33.8051C23.9756 33.3503 23.6021 32.9695 23.153 32.9695Z" fill="#7BDFF2"/>
<path fill-rule="evenodd" clip-rule="evenodd" d="M23.153 54.3763H9.38534C8.93618 54.3763 8.56271 54.7571 8.56271 55.2119V61.2472C8.56271 61.7046 8.93618 62.0828 9.38534 62.0828H23.153C23.6021 62.0828 23.9756 61.7046 23.9756 61.2472V55.2119C23.9756 54.7571 23.6021 54.3763 23.153 54.3763Z" fill="#7BDFF2"/>
<path fill-rule="evenodd" clip-rule="evenodd" d="M23.153 74.9269H9.38534C8.93618 74.9269 8.56271 75.3052 8.56271 75.7601V81.8001C8.56271 82.255 8.93618 82.6333 9.38534 82.6333H23.153C23.6021 82.6333 23.9756 82.255 23.9756 81.8001V75.7601C23.9756 75.3307 23.6021 74.9269 23.153 74.9269Z" fill="#7BDFF2"/>
<path fill-rule="evenodd" clip-rule="evenodd" d="M47.9849 74.9269H34.2172C33.7681 74.9269 33.3946 75.3052 33.3946 75.7601V81.8001C33.3946 82.255 33.7681 82.6333 34.2172 82.6333H47.9849C48.4341 82.6333 48.8075 82.255 48.8075 81.8001V75.7601C48.8075 75.3307 48.4341 74.9269 47.9849 74.9269Z" fill="#7BDFF2"/>
<path fill-rule="evenodd" clip-rule="evenodd" d="M33.3946 55.2301V61.2495C33.3946 61.7056 33.7507 62.0828 34.1789 62.0828H46.2387C46.0005 60.8468 45.8586 59.5649 45.8586 58.2296C45.8586 56.9197 45.9765 55.6327 46.2387 54.3763H34.1789C33.7507 54.3967 33.3946 54.7764 33.3946 55.2301Z" fill="#7BDFF2"/>
<mask id="mask0_5_113" style="mask-type:luminance" maskUnits="userSpaceOnUse" x="80" y="3" width="11" height="19">
<path d="M80.9777 3H90.7733V21.0889H80.9777V3Z" fill="white"/>
</mask>
<g mask="url(#mask0_5_113)">
<path fill-rule="evenodd" clip-rule="evenodd" d="M81.0516 11.8518V18.8874C81.0516 19.872 81.8577 20.6781 82.8373 20.6781H88.4749C89.457 20.6781 90.2631 19.872 90.2631 18.8874V4.79077C90.2631 3.8061 89.457 3 88.4749 3H82.8373C81.8577 3 81.0516 3.8061 81.0516 4.79077V11.8518Z" fill="#7BDFF2"/>
</g>
<mask id="mask1_5_113" style="mask-type:luminance" maskUnits="userSpaceOnUse" x="15" y="3" width="11" height="19">
<path d="M15.6731 3H25.4688V21.0889H15.6731V3Z" fill="white"/>
</mask>
<g mask="url(#mask1_5_113)">
<path fill-rule="evenodd" clip-rule="evenodd" d="M15.7598 4.79077V18.8644C15.7598 19.8491 16.5659 20.6552 17.548 20.6552H23.1576C24.1397 20.6552 24.9458 19.8491 24.9458 18.8644V4.79077C24.9458 3.8061 24.1397 3 23.1576 3H17.548C16.5404 3 15.7598 3.8061 15.7598 4.79077Z" fill="#7BDFF2"/>
</g>
<mask id="mask2_5_113" style="mask-type:luminance" maskUnits="userSpaceOnUse" x="0" y="12" width="106" height="81">
<path d="M0 12.5993H106V92.9086H0V12.5993Z" fill="white"/>
</mask>
<g mask="url(#mask2_5_113)">
<path fill-rule="evenodd" clip-rule="evenodd" d="M27.4866 18.8899C27.4866 21.2878 25.5504 23.2291 23.1576 23.2291H17.5481C15.1553 23.2291 13.2165 21.2878 13.2165 18.8899V13.1146H4.45909C2.01782 13.1146 0.00256348 15.1069 0.00256348 17.5762V88.4444C0.00256348 90.8933 1.99231 92.9086 4.45654 92.9086H101.51C103.954 92.9086 105.964 90.9137 105.964 88.4444V17.5762C105.964 15.1298 103.977 13.1146 101.51 13.1146H92.7758V18.8899C92.7758 21.2878 90.8371 23.2291 88.4469 23.2291H82.8092C80.419 23.2291 78.4803 21.2878 78.4803 18.8899V13.1146H27.4866V18.8899ZM33.8563 30.6422H47.7744C49.6391 30.6422 51.1493 32.1549 51.1493 34.0222V40.0476C51.1493 41.9174 49.6391 43.4276 47.7744 43.4276H33.8563C31.9941 43.4276 30.484 41.9174 30.484 40.0476V34.0222C30.484 32.1549 31.9941 30.6422 33.8563 30.6422ZM47.3458 51.6494C48.8305 47.5398 51.6773 44.0602 55.3507 41.8129C55.0242 41.2848 54.8482 40.6802 54.8482 40.0476V34.0222C54.8482 32.1549 56.3584 30.6422 58.2206 30.6422H72.1386C74.0033 30.6422 75.5135 32.1549 75.5135 34.0222V40.0476C75.5135 40.6802 75.3375 41.3103 75.011 41.8129C78.6843 44.0602 81.5312 47.5142 83.0133 51.6494H96.5028C98.3675 51.6494 99.8777 53.1621 99.8777 55.0294V61.0547C99.8777 62.9246 98.3675 64.4348 96.5028 64.4348H83.0133C81.5312 68.5469 78.6843 72.0264 75.011 74.2713C75.3375 74.7993 75.5135 75.4064 75.5135 76.0365V82.0619C75.5135 83.9317 74.0033 85.4419 72.1386 85.4419H58.2206C56.3584 85.4419 54.8482 83.9317 54.8482 82.0619V76.0365C54.8482 75.4064 55.0242 74.7738 55.3507 74.2713C51.6773 72.0264 48.8305 68.5724 47.3458 64.4348H33.8563C31.9941 64.4348 30.484 62.9246 30.484 61.0547V55.0294C30.484 53.1621 31.9941 51.6494 33.8563 51.6494H47.3458ZM79.2379 76.062C79.2379 74.1947 80.7481 72.682 82.6103 72.682H96.5309C98.3931 72.682 99.9032 74.1947 99.9032 76.062V82.0874C99.9032 83.9572 98.3931 85.4674 96.5309 85.4674H82.6103C80.7481 85.4674 79.2379 83.9572 79.2379 82.0874V76.062ZM30.484 76.062C30.484 74.1947 31.9941 72.682 33.8563 72.682H47.7744C49.6391 72.682 51.1493 74.1947 51.1493 76.062V82.0874C51.1493 83.9572 49.6391 85.4674 47.7744 85.4674H33.8563C31.9941 85.4674 30.484 83.9572 30.484 82.0874V76.062ZM9.46662 51.6494H23.3847C25.2494 51.6494 26.7596 53.1621 26.7596 55.0294V61.0547C26.7596 62.9246 25.2494 64.4348 23.3847 64.4348H9.46662C7.60187 64.4348 6.09425 62.9246 6.09425 61.0547V55.0294C6.09425 53.1646 7.60697 51.6494 9.46662 51.6494ZM9.46662 72.6565H23.3847C25.2494 72.6565 26.7596 74.1692 26.7596 76.0365V82.0619C26.7596 83.9317 25.2494 85.4419 23.3847 85.4419H9.46662C7.60187 85.4419 6.09425 83.9317 6.09425 82.0619V76.0365C6.09425 74.1973 7.60697 72.6565 9.46662 72.6565ZM79.2379 34.0222C79.2379 32.1549 80.7481 30.6422 82.6103 30.6422H96.5309C98.3931 30.6422 99.9032 32.1549 99.9032 34.0222V40.0476C99.9032 41.9174 98.3931 43.4276 96.5309 43.4276H82.6103C80.7481 43.4276 79.2379 41.9174 79.2379 40.0476V34.0222ZM9.46662 30.6422H23.3847C25.2494 30.6422 26.7596 32.1549 26.7596 34.0222V40.0476C26.7596 41.9174 25.2494 43.4276 23.3847 43.4276H9.46662C7.60187 43.4276 6.09425 41.9174 6.09425 40.0476V34.0222C6.09425 32.1549 7.60697 30.6422 9.46662 30.6422Z" fill="#7BDFF2"/>
</g>
<path fill-rule="evenodd" clip-rule="evenodd" d="M52.8075 54.8027C52.8075 63.7607 60.0967 71.0706 69.0779 71.0706C78.0364 71.0706 85.3458 63.7835 85.3458 54.8027C85.3458 45.8446 78.0592 38.5322 69.0779 38.5322C60.0967 38.5297 52.8075 45.8446 52.8075 54.8027ZM65.8861 61.8146C65.5623 61.8146 65.2361 61.691 64.9882 61.4411L59.8463 56.2995C59.348 55.7997 59.348 55.0021 59.8463 54.5275C60.3446 54.0278 61.1413 54.0278 61.6167 54.5275L65.8608 58.768L76.4658 48.139C76.964 47.6418 77.7632 47.6418 78.2387 48.139C78.737 48.6363 78.737 49.4364 78.2387 49.9109L66.7333 61.4158C66.5361 61.6884 66.2326 61.8146 65.8861 61.8146Z" fill="#EFF7F6"/>
<path fill-rule="evenodd" clip-rule="evenodd" d="M76.561 72.7831C74.2723 73.7111 71.7565 74.2232 69.0918 74.2232C66.4271 74.2232 63.9138 73.7111 61.6201 72.7831C61.4712 72.9217 61.3702 73.1073 61.3702 73.3164V78.8651C61.3702 79.2856 61.7437 79.6333 62.1929 79.6333H75.9605C76.4096 79.6333 76.7831 79.2856 76.7831 78.8651V73.3164C76.7856 73.1308 76.7099 72.9452 76.561 72.7831Z" fill="#EFF7F6"/>
<path fill-rule="evenodd" clip-rule="evenodd" d="M100.795 71.9269H87.0247C86.5756 71.9269 86.2021 72.3052 86.2021 72.7601V78.8001C86.2021 79.255 86.5756 79.6333 87.0247 79.6333H100.795C101.242 79.6333 101.615 79.255 101.615 78.8001V72.7601C101.615 72.3307 101.244 71.9269 100.795 71.9269Z" fill="#EFF7F6"/>
<path fill-rule="evenodd" clip-rule="evenodd" d="M87.9147 51.3763C88.1688 52.6119 88.3202 53.8959 88.3202 55.2308C88.3202 56.5378 88.1944 57.8243 87.9147 59.0828H100.781C101.235 59.0828 101.615 58.7032 101.615 58.2497V52.2349C101.615 51.7814 101.235 51.4044 100.781 51.4044H87.9147V51.3763Z" fill="#EFF7F6"/>
<path fill-rule="evenodd" clip-rule="evenodd" d="M86.2021 30.8051V36.8404C86.2021 37.2978 86.5756 37.676 87.0247 37.676H100.795C101.244 37.676 101.615 37.2978 101.615 36.8404V30.8051C101.615 30.3503 101.244 29.9695 100.795 29.9695H87.0247C86.5756 29.9695 86.2021 30.3503 86.2021 30.8051Z" fill="#EFF7F6"/>
<path fill-rule="evenodd" clip-rule="evenodd" d="M61.3702 30.8334V37.0736C61.3702 37.3114 61.4685 37.5201 61.6196 37.676C63.9063 36.6298 66.4147 36.0565 69.0767 36.0565C71.7337 36.0565 74.2445 36.6298 76.5338 37.676C76.6799 37.5201 76.7831 37.3114 76.7831 37.0736V30.8334C76.7831 30.3632 76.4104 29.9695 75.9621 29.9695H62.2215C61.7682 29.9695 61.3702 30.3632 61.3702 30.8334Z" fill="#EFF7F6"/>
<path fill-rule="evenodd" clip-rule="evenodd" d="M38.2172 29.9695C37.7681 29.9695 37.3946 30.3503 37.3946 30.8051V36.8404C37.3946 37.2978 37.7681 37.676 38.2172 37.676H51.9849C52.4341 37.676 52.8075 37.2978 52.8075 36.8404V30.8051C52.8075 30.3503 52.4341 29.9695 51.9849 29.9695H38.2172Z" fill="#EFF7F6"/>
<path fill-rule="evenodd" clip-rule="evenodd" d="M27.153 29.9695H13.3853C12.9362 29.9695 12.5627 30.3503 12.5627 30.8051V36.8404C12.5627 37.2978 12.9362 37.676 13.3853 37.676H27.153C27.6021 37.676 27.9756 37.2978 27.9756 36.8404V30.8051C27.9756 30.3503 27.6021 29.9695 27.153 29.9695Z" fill="#EFF7F6"/>
<path fill-rule="evenodd" clip-rule="evenodd" d="M27.153 51.3763H13.3853C12.9362 51.3763 12.5627 51.7571 12.5627 52.2119V58.2472C12.5627 58.7046 12.9362 59.0828 13.3853 59.0828H27.153C27.6021 59.0828 27.9756 58.7046 27.9756 58.2472V52.2119C27.9756 51.7571 27.6021 51.3763 27.153 51.3763Z" fill="#EFF7F6"/>
<path fill-rule="evenodd" clip-rule="evenodd" d="M27.153 71.9269H13.3853C12.9362 71.9269 12.5627 72.3052 12.5627 72.7601V78.8001C12.5627 79.255 12.9362 79.6333 13.3853 79.6333H27.153C27.6021 79.6333 27.9756 79.255 27.9756 78.8001V72.7601C27.9756 72.3307 27.6021 71.9269 27.153 71.9269Z" fill="#EFF7F6"/>
<path fill-rule="evenodd" clip-rule="evenodd" d="M51.9849 71.9269H38.2172C37.7681 71.9269 37.3946 72.3052 37.3946 72.7601V78.8001C37.3946 79.255 37.7681 79.6333 38.2172 79.6333H51.9849C52.4341 79.6333 52.8075 79.255 52.8075 78.8001V72.7601C52.8075 72.3307 52.4341 71.9269 51.9849 71.9269Z" fill="#EFF7F6"/>
<path fill-rule="evenodd" clip-rule="evenodd" d="M37.3946 52.2301V58.2495C37.3946 58.7056 37.7507 59.0828 38.1789 59.0828H50.2387C50.0005 57.8468 49.8586 56.5649 49.8586 55.2296C49.8586 53.9197 49.9765 52.6327 50.2387 51.3763H38.1789C37.7507 51.3967 37.3946 51.7764 37.3946 52.2301Z" fill="#EFF7F6"/>
<mask id="mask3_5_113" style="mask-type:luminance" maskUnits="userSpaceOnUse" x="84" y="0" width="11" height="19">
<path d="M84.9777 0H94.7733V18.0889H84.9777V0Z" fill="white"/>
</mask>
<g mask="url(#mask3_5_113)">
<path fill-rule="evenodd" clip-rule="evenodd" d="M85.0516 8.85183V15.8874C85.0516 16.872 85.8577 17.6781 86.8373 17.6781H92.4749C93.457 17.6781 94.2631 16.872 94.2631 15.8874V1.79077C94.2631 0.806103 93.457 0 92.4749 0H86.8373C85.8577 0 85.0516 0.806103 85.0516 1.79077V8.85183Z" fill="#EFF7F6"/>
</g>
<mask id="mask4_5_113" style="mask-type:luminance" maskUnits="userSpaceOnUse" x="19" y="0" width="11" height="19">
<path d="M19.6731 0H29.4688V18.0889H19.6731V0Z" fill="white"/>
</mask>
<g mask="url(#mask4_5_113)">
<path fill-rule="evenodd" clip-rule="evenodd" d="M19.7598 1.79077V15.8644C19.7598 16.8491 20.5659 17.6552 21.548 17.6552H27.1576C28.1397 17.6552 28.9458 16.8491 28.9458 15.8644V1.79077C28.9458 0.806103 28.1397 0 27.1576 0H21.548C20.5404 0 19.7598 0.806103 19.7598 1.79077Z" fill="#EFF7F6"/>
</g>
<mask id="mask5_5_113" style="mask-type:luminance" maskUnits="userSpaceOnUse" x="4" y="9" width="106" height="81">
<path d="M4 9.5993H110V89.9086H4V9.5993Z" fill="white"/>
</mask>
<g mask="url(#mask5_5_113)">
<path fill-rule="evenodd" clip-rule="evenodd" d="M31.4866 15.8899C31.4866 18.2878 29.5504 20.2291 27.1576 20.2291H21.5481C19.1553 20.2291 17.2165 18.2878 17.2165 15.8899V10.1146H8.45909C6.01782 10.1146 4.00256 12.1069 4.00256 14.5762V85.4444C4.00256 87.8933 5.99231 89.9086 8.45654 89.9086H105.51C107.954 89.9086 109.964 87.9137 109.964 85.4444V14.5762C109.964 12.1298 107.977 10.1146 105.51 10.1146H96.7758V15.8899C96.7758 18.2878 94.8371 20.2291 92.4469 20.2291H86.8092C84.419 20.2291 82.4803 18.2878 82.4803 15.8899V10.1146H31.4866V15.8899ZM37.8563 27.6422H51.7744C53.6391 27.6422 55.1493 29.1549 55.1493 31.0222V37.0476C55.1493 38.9174 53.6391 40.4276 51.7744 40.4276H37.8563C35.9941 40.4276 34.484 38.9174 34.484 37.0476V31.0222C34.484 29.1549 35.9941 27.6422 37.8563 27.6422ZM51.3458 48.6494C52.8305 44.5398 55.6773 41.0602 59.3507 38.8129C59.0242 38.2848 58.8482 37.6802 58.8482 37.0476V31.0222C58.8482 29.1549 60.3584 27.6422 62.2206 27.6422H76.1386C78.0033 27.6422 79.5135 29.1549 79.5135 31.0222V37.0476C79.5135 37.6802 79.3375 38.3103 79.011 38.8129C82.6843 41.0602 85.5312 44.5142 87.0133 48.6494H100.503C102.368 48.6494 103.878 50.1621 103.878 52.0294V58.0547C103.878 59.9246 102.368 61.4348 100.503 61.4348H87.0133C85.5312 65.5469 82.6843 69.0264 79.011 71.2713C79.3375 71.7993 79.5135 72.4064 79.5135 73.0365V79.0619C79.5135 80.9317 78.0033 82.4419 76.1386 82.4419H62.2206C60.3584 82.4419 58.8482 80.9317 58.8482 79.0619V73.0365C58.8482 72.4064 59.0242 71.7738 59.3507 71.2713C55.6773 69.0264 52.8305 65.5724 51.3458 61.4348H37.8563C35.9941 61.4348 34.484 59.9246 34.484 58.0547V52.0294C34.484 50.1621 35.9941 48.6494 37.8563 48.6494H51.3458ZM83.2379 73.062C83.2379 71.1947 84.7481 69.682 86.6103 69.682H100.531C102.393 69.682 103.903 71.1947 103.903 73.062V79.0874C103.903 80.9572 102.393 82.4674 100.531 82.4674H86.6103C84.7481 82.4674 83.2379 80.9572 83.2379 79.0874V73.062ZM34.484 73.062C34.484 71.1947 35.9941 69.682 37.8563 69.682H51.7744C53.6391 69.682 55.1493 71.1947 55.1493 73.062V79.0874C55.1493 80.9572 53.6391 82.4674 51.7744 82.4674H37.8563C35.9941 82.4674 34.484 80.9572 34.484 79.0874V73.062ZM13.4666 48.6494H27.3847C29.2494 48.6494 30.7596 50.1621 30.7596 52.0294V58.0547C30.7596 59.9246 29.2494 61.4348 27.3847 61.4348H13.4666C11.6019 61.4348 10.0943 59.9246 10.0943 58.0547V52.0294C10.0943 50.1646 11.607 48.6494 13.4666 48.6494ZM13.4666 69.6565H27.3847C29.2494 69.6565 30.7596 71.1692 30.7596 73.0365V79.0619C30.7596 80.9317 29.2494 82.4419 27.3847 82.4419H13.4666C11.6019 82.4419 10.0943 80.9317 10.0943 79.0619V73.0365C10.0943 71.1973 11.607 69.6565 13.4666 69.6565ZM83.2379 31.0222C83.2379 29.1549 84.7481 27.6422 86.6103 27.6422H100.531C102.393 27.6422 103.903 29.1549 103.903 31.0222V37.0476C103.903 38.9174 102.393 40.4276 100.531 40.4276H86.6103C84.7481 40.4276 83.2379 38.9174 83.2379 37.0476V31.0222ZM13.4666 27.6422H27.3847C29.2494 27.6422 30.7596 29.1549 30.7596 31.0222V37.0476C30.7596 38.9174 29.2494 40.4276 27.3847 40.4276H13.4666C11.6019 40.4276 10.0943 38.9174 10.0943 37.0476V31.0222C10.0943 29.1549 11.607 27.6422 13.4666 27.6422Z" fill="#EFF7F6"/>
</g>
</svg>
