<svg width="121" height="102" viewBox="0 0 121 102" fill="none" xmlns="http://www.w3.org/2000/svg">
<path d="M79.5606 19.0909H95.6515V31.6061H79.5606V19.0909Z" fill="#7BDFF2"/>
<path d="M60.7879 19.0909H76.8788V31.6061H60.7879V19.0909Z" fill="#7BDFF2"/>
<path d="M76.8788 35.1818V39.6515L66.1515 35.1818H76.8788Z" fill="#7BDFF2"/>
<path d="M79.5606 35.1818H95.6515V48.5909L79.5606 41.3578V35.1818Z" fill="#7BDFF2"/>
<path d="M79.5606 3H95.6515V15.5152H79.5606V3Z" fill="#7BDFF2"/>
<path d="M60.7879 3H76.8788V15.5152H60.7879V3Z" fill="#7BDFF2"/>
<path d="M41.1212 19.0909H57.2121V31.6061H41.1212V19.0909Z" fill="#7BDFF2"/>
<path d="M51.8485 35.1818L41.1212 39.6515V35.1818H51.8485Z" fill="#7BDFF2"/>
<path d="M22.3485 19.0909H38.4394V31.6061H22.3485V19.0909Z" fill="#7BDFF2"/>
<path d="M22.3485 35.1818H38.4394V41.3578L22.3485 48.5909V35.1818Z" fill="#7BDFF2"/>
<path d="M20.1114 95.0649C20.2592 95.0692 20.4093 95.0758 20.5571 95.0758C25.9807 95.0758 31.177 93.0665 35.1862 89.4201C35.6231 89.0217 36.0446 88.6059 36.4462 88.1705C37.2846 87.2715 38.4916 86.7555 39.7581 86.7555C41.0225 86.7555 42.2272 87.2715 43.0657 88.1662C47.1521 92.5527 52.9641 95.0627 59.0121 95.0627C64.4622 95.0627 69.6651 93.0621 73.6655 89.4201C74.1046 89.0217 74.5239 88.6059 74.9277 88.1705C75.7639 87.2715 76.9709 86.7555 78.2396 86.7555C79.504 86.7555 80.7087 87.2715 81.545 88.1662C85.6314 92.5527 91.4412 95.0627 97.4914 95.0627C97.6304 95.0627 97.765 95.0475 97.904 95.0453C104.065 85.8913 108.2 75.4159 109.866 64.5399C110.397 61.059 108.506 57.5999 105.265 56.1348L96.8317 52.3143C96.8118 52.3056 96.7897 52.2969 96.7699 52.2882L58.9989 35.1818L40.3782 43.6153C40.3737 43.6153 40.3715 43.6174 40.3671 43.6196L21.1683 52.3143C21.1639 52.3165 21.1595 52.3186 21.1529 52.3208L12.735 56.1348C9.49366 57.5999 7.60268 61.059 8.13445 64.5399C9.80257 75.4246 13.942 85.9087 20.1114 95.0649ZM57.5007 41.1619C57.5007 40.3433 58.1714 39.6815 58.9989 39.6815C59.8285 39.6815 60.4993 40.3433 60.4993 41.1619V83.7905C60.4993 84.6091 59.8285 85.2709 58.9989 85.2709C58.1714 85.2709 57.5007 84.6091 57.5007 83.7905V41.1619Z" fill="#7BDFF2"/>
<path d="M59.0111 101.33C52.0622 101.33 45.1331 98.6692 39.8308 93.4178C39.6637 93.5837 39.4944 93.7473 39.3208 93.9087C28.1446 104.416 10.6812 103.679 0.395266 92.268C-0.163105 91.6472 -0.125734 90.6834 0.481001 90.1119C1.08993 89.5448 2.03521 89.5874 2.59138 90.1993C7.03637 95.1279 13.0927 97.9946 19.6481 98.2703C26.2122 98.5504 32.4708 96.1993 37.2961 91.6651C37.7952 91.1989 38.2722 90.7103 38.7316 90.1993C39.2944 89.5739 40.3606 89.5717 40.9299 90.1993C50.1013 100.375 65.6698 101.036 75.6347 91.6651C76.1315 91.1989 76.6107 90.7103 77.068 90.1993C77.6308 89.5739 78.6969 89.5717 79.2663 90.1993C88.4377 100.375 104.006 101.036 113.971 91.6651C114.468 91.1989 114.947 90.7103 115.404 90.1993C115.965 89.5874 116.915 89.5448 117.517 90.1119C118.124 90.6834 118.165 91.6472 117.605 92.268C117.093 92.8373 116.554 93.3842 115.996 93.9087C105.211 104.053 88.5652 103.719 78.1672 93.4178C78.0001 93.5837 77.8308 93.7473 77.6593 93.9087C72.3746 98.8777 65.6829 101.33 59.0111 101.33Z" fill="#7BDFF2"/>
<path d="M82.5606 16.0909H98.6515V28.6061H82.5606V16.0909Z" fill="#EFF7F6"/>
<path d="M63.7879 16.0909H79.8788V28.6061H63.7879V16.0909Z" fill="#EFF7F6"/>
<path d="M79.8788 32.1818V36.6515L69.1515 32.1818H79.8788Z" fill="#EFF7F6"/>
<path d="M82.5606 32.1818H98.6515V45.5909L82.5606 38.3578V32.1818Z" fill="#EFF7F6"/>
<path d="M82.5606 0H98.6515V12.5152H82.5606V0Z" fill="#EFF7F6"/>
<path d="M63.7879 0H79.8788V12.5152H63.7879V0Z" fill="#EFF7F6"/>
<path d="M44.1212 16.0909H60.2121V28.6061H44.1212V16.0909Z" fill="#EFF7F6"/>
<path d="M54.8485 32.1818L44.1212 36.6515V32.1818H54.8485Z" fill="#EFF7F6"/>
<path d="M25.3485 16.0909H41.4394V28.6061H25.3485V16.0909Z" fill="#EFF7F6"/>
<path d="M25.3485 32.1818H41.4394V38.3578L25.3485 45.5909V32.1818Z" fill="#EFF7F6"/>
<path d="M23.1114 92.0649C23.2592 92.0692 23.4093 92.0758 23.5571 92.0758C28.9807 92.0758 34.177 90.0665 38.1862 86.4201C38.6231 86.0217 39.0446 85.6059 39.4462 85.1705C40.2846 84.2715 41.4916 83.7555 42.7581 83.7555C44.0225 83.7555 45.2272 84.2715 46.0657 85.1662C50.1521 89.5527 55.9641 92.0627 62.0121 92.0627C67.4622 92.0627 72.6651 90.0621 76.6655 86.4201C77.1046 86.0217 77.5239 85.6059 77.9277 85.1705C78.7639 84.2715 79.9709 83.7555 81.2396 83.7555C82.504 83.7555 83.7087 84.2715 84.545 85.1662C88.6314 89.5527 94.4412 92.0627 100.491 92.0627C100.63 92.0627 100.765 92.0475 100.904 92.0453C107.065 82.8913 111.2 72.4159 112.866 61.5399C113.397 58.059 111.506 54.5999 108.265 53.1348L99.8317 49.3143C99.8118 49.3056 99.7897 49.2969 99.7699 49.2882L61.9989 32.1818L43.3782 40.6153C43.3737 40.6153 43.3715 40.6174 43.3671 40.6196L24.1683 49.3143C24.1639 49.3165 24.1595 49.3186 24.1529 49.3208L15.735 53.1348C12.4937 54.5999 10.6027 58.059 11.1345 61.5399C12.8026 72.4246 16.942 82.9087 23.1114 92.0649ZM60.5007 38.1619C60.5007 37.3433 61.1714 36.6815 61.9989 36.6815C62.8285 36.6815 63.4993 37.3433 63.4993 38.1619V80.7905C63.4993 81.6091 62.8285 82.2709 61.9989 82.2709C61.1714 82.2709 60.5007 81.6091 60.5007 80.7905V38.1619Z" fill="#EFF7F6"/>
<path d="M62.0111 98.3297C55.0622 98.3297 48.1331 95.6692 42.8308 90.4178C42.6637 90.5837 42.4944 90.7473 42.3208 90.9087C31.1446 101.416 13.6812 100.679 3.39527 89.268C2.8369 88.6472 2.87427 87.6834 3.481 87.1119C4.08993 86.5448 5.03521 86.5874 5.59138 87.1993C10.0364 92.1279 16.0927 94.9946 22.6481 95.2703C29.2122 95.5504 35.4708 93.1993 40.2961 88.6651C40.7952 88.1989 41.2722 87.7103 41.7316 87.1993C42.2944 86.5739 43.3606 86.5717 43.9299 87.1993C53.1013 97.3749 68.6698 98.036 78.6347 88.6651C79.1315 88.1989 79.6107 87.7103 80.068 87.1993C80.6308 86.5739 81.6969 86.5717 82.2663 87.1993C91.4377 97.3749 107.006 98.036 116.971 88.6651C117.468 88.1989 117.947 87.7103 118.404 87.1993C118.965 86.5874 119.915 86.5448 120.517 87.1119C121.124 87.6834 121.165 88.6472 120.605 89.268C120.093 89.8373 119.554 90.3842 118.996 90.9087C108.211 101.053 91.5652 100.719 81.1672 90.4178C81.0001 90.5837 80.8308 90.7473 80.6593 90.9087C75.3746 95.8777 68.6829 98.3297 62.0111 98.3297Z" fill="#EFF7F6"/>
</svg>
